<svg width="500" height="500" viewBox="0 0 500 500" fill="none" xmlns="http://www.w3.org/2000/svg">
<g opacity="0.2">
<path opacity="0.2" d="M115.11 35.19H159.6V94.04H103.89" stroke="black" stroke-linecap="round" stroke-linejoin="round"/>
<path opacity="0.2" d="M98.07 94.04H84.52V35.19H109.29" stroke="black" stroke-linecap="round" stroke-linejoin="round"/>
<path opacity="0.2" d="M98.4301 52.27H90.1901V60.51H98.4301V52.27Z" stroke="black" stroke-linecap="round" stroke-linejoin="round"/>
<path opacity="0.2" d="M109.53 52.27H101.29V60.51H109.53V52.27Z" stroke="black" stroke-linecap="round" stroke-linejoin="round"/>
<path opacity="0.2" d="M120.63 52.27H112.39V60.51H120.63V52.27Z" stroke="black" stroke-linecap="round" stroke-linejoin="round"/>
<path opacity="0.2" d="M131.73 52.27H123.49V60.51H131.73V52.27Z" stroke="black" stroke-linecap="round" stroke-linejoin="round"/>
<path opacity="0.2" d="M142.84 52.27H134.6V60.51H142.84V52.27Z" stroke="black" stroke-linecap="round" stroke-linejoin="round"/>
<path opacity="0.2" d="M153.94 52.27H145.7V60.51H153.94V52.27Z" stroke="black" stroke-linecap="round" stroke-linejoin="round"/>
<path opacity="0.2" d="M98.4301 63.73H90.1901V71.97H98.4301V63.73Z" stroke="black" stroke-linecap="round" stroke-linejoin="round"/>
<path opacity="0.2" d="M109.53 63.73H101.29V71.97H109.53V63.73Z" stroke="black" stroke-linecap="round" stroke-linejoin="round"/>
<path opacity="0.2" d="M120.63 63.73H112.39V71.97H120.63V63.73Z" stroke="black" stroke-linecap="round" stroke-linejoin="round"/>
<path opacity="0.2" d="M131.73 63.73H123.49V71.97H131.73V63.73Z" stroke="black" stroke-linecap="round" stroke-linejoin="round"/>
<path opacity="0.2" d="M142.84 63.73H134.6V71.97H142.84V63.73Z" stroke="black" stroke-linecap="round" stroke-linejoin="round"/>
<path opacity="0.2" d="M153.94 63.73H145.7V71.97H153.94V63.73Z" stroke="black" stroke-linecap="round" stroke-linejoin="round"/>
<path opacity="0.2" d="M98.4301 75.19H90.1901V83.43H98.4301V75.19Z" stroke="black" stroke-linecap="round" stroke-linejoin="round"/>
<path opacity="0.2" d="M109.53 75.19H101.29V83.43H109.53V75.19Z" stroke="black" stroke-linecap="round" stroke-linejoin="round"/>
<path opacity="0.2" d="M120.63 75.19H112.39V83.43H120.63V75.19Z" stroke="black" stroke-linecap="round" stroke-linejoin="round"/>
<path opacity="0.2" d="M131.73 75.19H123.49V83.43H131.73V75.19Z" stroke="black" stroke-linecap="round" stroke-linejoin="round"/>
<path opacity="0.2" d="M142.84 75.19H134.6V83.43H142.84V75.19Z" stroke="black" stroke-linecap="round" stroke-linejoin="round"/>
<path opacity="0.2" d="M153.94 75.19H145.7V83.43H153.94V75.19Z" stroke="black" stroke-linecap="round" stroke-linejoin="round"/>
<path opacity="0.2" d="M154.25 43.31H90.5V46.17H154.25V43.31Z" stroke="black" stroke-linecap="round" stroke-linejoin="round"/>
</g>
<g opacity="0.2">
<path opacity="0.2" d="M442.21 102.45H470.28V161.31H462.99" stroke="black" stroke-linecap="round" stroke-linejoin="round"/>
<path opacity="0.2" d="M458 161.31H395.19V102.45H435.56" stroke="black" stroke-linecap="round" stroke-linejoin="round"/>
<path opacity="0.2" d="M409.1 119.53H400.86V127.77H409.1V119.53Z" stroke="black" stroke-linecap="round" stroke-linejoin="round"/>
<path opacity="0.2" d="M420.21 119.53H411.97V127.77H420.21V119.53Z" stroke="black" stroke-linecap="round" stroke-linejoin="round"/>
<path opacity="0.2" d="M431.31 119.53H423.07V127.77H431.31V119.53Z" stroke="black" stroke-linecap="round" stroke-linejoin="round"/>
<path opacity="0.2" d="M442.41 119.53H434.17V127.77H442.41V119.53Z" stroke="black" stroke-linecap="round" stroke-linejoin="round"/>
<path opacity="0.2" d="M453.51 119.53H445.27V127.77H453.51V119.53Z" stroke="black" stroke-linecap="round" stroke-linejoin="round"/>
<path opacity="0.2" d="M464.61 119.53H456.37V127.77H464.61V119.53Z" stroke="black" stroke-linecap="round" stroke-linejoin="round"/>
<path opacity="0.2" d="M409.1 130.99H400.86V139.23H409.1V130.99Z" stroke="black" stroke-linecap="round" stroke-linejoin="round"/>
<path opacity="0.2" d="M420.21 130.99H411.97V139.23H420.21V130.99Z" stroke="black" stroke-linecap="round" stroke-linejoin="round"/>
<path opacity="0.2" d="M431.31 130.99H423.07V139.23H431.31V130.99Z" stroke="black" stroke-linecap="round" stroke-linejoin="round"/>
<path opacity="0.2" d="M442.41 130.99H434.17V139.23H442.41V130.99Z" stroke="black" stroke-linecap="round" stroke-linejoin="round"/>
<path opacity="0.2" d="M453.51 130.99H445.27V139.23H453.51V130.99Z" stroke="black" stroke-linecap="round" stroke-linejoin="round"/>
<path opacity="0.2" d="M464.61 130.99H456.37V139.23H464.61V130.99Z" stroke="black" stroke-linecap="round" stroke-linejoin="round"/>
<path opacity="0.2" d="M409.1 142.45H400.86V150.69H409.1V142.45Z" stroke="black" stroke-linecap="round" stroke-linejoin="round"/>
<path opacity="0.2" d="M420.21 142.45H411.97V150.69H420.21V142.45Z" stroke="black" stroke-linecap="round" stroke-linejoin="round"/>
<path opacity="0.2" d="M431.31 142.45H423.07V150.69H431.31V142.45Z" stroke="black" stroke-linecap="round" stroke-linejoin="round"/>
<path opacity="0.2" d="M442.41 142.45H434.17V150.69H442.41V142.45Z" stroke="black" stroke-linecap="round" stroke-linejoin="round"/>
<path opacity="0.2" d="M453.51 142.45H445.27V150.69H453.51V142.45Z" stroke="black" stroke-linecap="round" stroke-linejoin="round"/>
<path opacity="0.2" d="M464.61 142.45H456.37V150.69H464.61V142.45Z" stroke="black" stroke-linecap="round" stroke-linejoin="round"/>
<path opacity="0.2" d="M464.93 110.58H401.18V113.45H464.93V110.58Z" stroke="black" stroke-linecap="round" stroke-linejoin="round"/>
</g>
<g opacity="0.2">
<path opacity="0.2" d="M47.4 196.57V165.86C47.3947 165.355 47.4896 164.854 47.6792 164.386C47.8688 163.918 48.1494 163.492 48.5046 163.133C48.8598 162.774 49.2827 162.489 49.7488 162.295C50.2149 162.1 50.715 162 51.22 162H99.22C100.236 162 101.21 162.404 101.928 163.122C102.646 163.84 103.05 164.814 103.05 165.83V210H47.4V203.22" stroke="black" stroke-linecap="round" stroke-linejoin="round"/>
<path opacity="0.2" d="M48.09 172.46H102.32" stroke="black" stroke-linecap="round" stroke-linejoin="round"/>
<path opacity="0.2" d="M61.08 181.5H52.96V187.75H97.45V181.5H69.39" stroke="black" stroke-linecap="round" stroke-linejoin="round"/>
<path opacity="0.2" d="M97.45 194.71H52.96V200.97H97.45V194.71Z" stroke="black" stroke-linecap="round" stroke-linejoin="round"/>
</g>
<g opacity="0.2">
<path opacity="0.2" d="M277.22 420H325.22C326.233 420 327.205 420.402 327.921 421.119C328.638 421.835 329.04 422.807 329.04 423.82V468H273.4V423.86C273.395 423.355 273.49 422.854 273.679 422.386C273.869 421.918 274.149 421.492 274.505 421.133C274.86 420.774 275.283 420.489 275.749 420.295C276.215 420.1 276.715 420 277.22 420V420Z" stroke="black" stroke-linecap="round" stroke-linejoin="round"/>
<path opacity="0.2" d="M274.09 430.46H328.32" stroke="black" stroke-linecap="round" stroke-linejoin="round"/>
<path opacity="0.2" d="M323.45 439.5H278.96V445.76H323.45V439.5Z" stroke="black" stroke-linecap="round" stroke-linejoin="round"/>
<path opacity="0.2" d="M323.45 452.71H278.96V458.97H323.45V452.71Z" stroke="black" stroke-linecap="round" stroke-linejoin="round"/>
</g>
<g opacity="0.2">
<path opacity="0.2" d="M288 45.71C282.033 40.0291 274.053 36.9513 265.816 37.1539C257.58 37.3564 249.761 40.8226 244.08 46.79C238.399 52.7574 235.321 60.7371 235.524 68.9737C235.726 77.2103 239.193 85.0291 245.16 90.71" stroke="black" stroke-linecap="round" stroke-linejoin="round"/>
<path opacity="0.2" d="M248.66 93.73C254.824 98.2919 262.459 100.412 270.093 99.6819C277.727 98.9519 284.821 95.4234 290.009 89.7758C295.198 84.1282 298.113 76.7609 298.194 69.0924C298.276 61.4238 295.517 53.9963 290.45 48.24" stroke="black" stroke-linecap="round" stroke-linejoin="round"/>
<path opacity="0.2" d="M281.36 68.77H267.15V92.9" stroke="black" stroke-linecap="round" stroke-linejoin="round"/>
</g>
<g opacity="0.2">
<path opacity="0.2" d="M47.31 90.26C45.1546 90.6007 43.0945 91.3892 41.2624 92.5747C39.4304 93.7602 37.8671 95.3164 36.6733 97.1431C35.4794 98.9697 34.6816 101.026 34.3312 103.18C33.9807 105.334 34.0855 107.537 34.6386 109.648C35.1918 111.759 36.1811 113.731 37.5428 115.436C38.9045 117.141 40.6084 118.542 42.5446 119.548C44.4809 120.555 46.6065 121.144 48.7845 121.279C50.9625 121.413 53.1445 121.09 55.19 120.33" stroke="black" stroke-linecap="round" stroke-linejoin="round"/>
<path opacity="0.2" d="M60.27 117.21C62.4605 115.19 64.0281 112.587 64.7883 109.706C65.5484 106.825 65.4693 103.787 64.5603 100.95C63.6513 98.1126 61.9502 95.5941 59.6576 93.6913C57.365 91.7885 54.5762 90.5807 51.62 90.21" stroke="black" stroke-linecap="round" stroke-linejoin="round"/>
<path opacity="0.2" d="M49.71 97.74V113.65" stroke="black" stroke-miterlimit="10"/>
<path opacity="0.2" d="M57.67 105.7H41.75" stroke="black" stroke-miterlimit="10"/>
</g>
<g opacity="0.2">
<path opacity="0.2" d="M470.03 243.03C478.657 243.03 485.65 236.037 485.65 227.41C485.65 218.783 478.657 211.79 470.03 211.79C461.403 211.79 454.41 218.783 454.41 227.41C454.41 236.037 461.403 243.03 470.03 243.03Z" stroke="white" stroke-linecap="round" stroke-linejoin="round"/>
<path opacity="0.2" d="M470.03 219.45V235.37" stroke="white" stroke-miterlimit="10"/>
<path opacity="0.2" d="M477.98 227.41H462.07" stroke="white" stroke-miterlimit="10"/>
</g>
<path d="M441 436H82L82.42 140.47C82.42 137.624 83.5505 134.895 85.5627 132.883C87.575 130.871 90.3042 129.74 93.15 129.74H430.69C432.099 129.739 433.495 130.015 434.798 130.554C436.1 131.093 437.284 131.883 438.28 132.88C439.277 133.876 440.067 135.06 440.606 136.362C441.145 137.665 441.421 139.061 441.42 140.47L441 436Z" fill="#CBCBCB" stroke="#263238" stroke-linecap="round" stroke-linejoin="round"/>
<path d="M180.72 156H129.75V166.49H180.72V156Z" stroke="#263238" stroke-linecap="round" stroke-linejoin="round"/>
<path d="M335.24 170.29H428.19" stroke="#263238" stroke-linecap="round" stroke-linejoin="round"/>
<path d="M102.35 170.29H329.82" stroke="#263238" stroke-linecap="round" stroke-linejoin="round"/>
<path d="M430.69 129.74H93.15C90.3043 129.74 87.5751 130.871 85.5628 132.883C83.5505 134.895 82.42 137.624 82.42 140.47V148.64H441.42V140.47C441.421 139.061 441.145 137.665 440.606 136.362C440.067 135.06 439.277 133.876 438.28 132.88C437.284 131.883 436.1 131.093 434.798 130.554C433.495 130.015 432.1 129.739 430.69 129.74V129.74Z" fill="#263238" stroke="#263238" stroke-linecap="round" stroke-linejoin="round"/>
<path d="M102 140.23C102 139.589 101.81 138.963 101.454 138.43C101.098 137.897 100.592 137.482 99.9999 137.237C99.4079 136.991 98.7564 136.927 98.1279 137.052C97.4994 137.177 96.9221 137.486 96.469 137.939C96.0159 138.392 95.7073 138.969 95.5823 139.598C95.4573 140.226 95.5214 140.878 95.7667 141.47C96.0119 142.062 96.4272 142.568 96.96 142.924C97.4928 143.28 98.1192 143.47 98.76 143.47C99.6193 143.47 100.443 143.129 101.051 142.521C101.659 141.913 102 141.089 102 140.23V140.23Z" fill="white" stroke="#263238" stroke-linecap="round" stroke-linejoin="round"/>
<path d="M114.93 140.23C114.93 139.589 114.74 138.963 114.384 138.43C114.028 137.897 113.522 137.482 112.93 137.237C112.338 136.991 111.686 136.927 111.058 137.052C110.429 137.177 109.852 137.486 109.399 137.939C108.946 138.392 108.637 138.969 108.512 139.598C108.387 140.226 108.451 140.878 108.697 141.47C108.942 142.062 109.357 142.568 109.89 142.924C110.423 143.28 111.049 143.47 111.69 143.47C112.549 143.47 113.373 143.129 113.981 142.521C114.589 141.913 114.93 141.089 114.93 140.23V140.23Z" fill="white" stroke="#263238" stroke-linecap="round" stroke-linejoin="round"/>
<path d="M124.64 143.47C126.429 143.47 127.88 142.019 127.88 140.23C127.88 138.441 126.429 136.99 124.64 136.99C122.851 136.99 121.4 138.441 121.4 140.23C121.4 142.019 122.851 143.47 124.64 143.47Z" fill="white" stroke="#263238" stroke-linecap="round" stroke-linejoin="round"/>
<path d="M103.14 156.62H118.5" stroke="#263238" stroke-linecap="round" stroke-linejoin="round"/>
<path d="M103.14 160.75H118.5" stroke="#263238" stroke-linecap="round" stroke-linejoin="round"/>
<path d="M103.14 164.87H118.5" stroke="#263238" stroke-linecap="round" stroke-linejoin="round"/>
<path d="M106 193.06V179.82H103.29V178.33H110.36V179.82H107.64V193.06H106Z" fill="#263238"/>
<path d="M112.34 190.09L111.77 193.09H110.25L113.07 178.36H115.45L118.27 193.09H116.63L116.06 190.09H112.34ZM112.55 188.68H115.83L114.17 180.18L112.55 188.68Z" fill="#263238"/>
<path d="M125.93 181.86V182.26H124.37V181.78C124.37 180.45 123.87 179.67 122.69 179.67C121.51 179.67 121.01 180.45 121.01 181.76C121.01 185.06 125.95 185.38 125.95 189.52C125.95 191.75 124.88 193.2 122.63 193.2C120.38 193.2 119.32 191.75 119.32 189.52V188.68H120.86V189.61C120.86 190.93 121.41 191.71 122.59 191.71C123.77 191.71 124.31 190.93 124.31 189.61C124.31 186.32 119.39 186.01 119.39 181.86C119.39 179.59 120.39 178.18 122.65 178.18C124.91 178.18 125.93 179.63 125.93 181.86Z" fill="#263238"/>
<path d="M129.89 186.66L129.02 188.11V193.06H127.38V178.33H129V185.44L132.92 178.33H134.58L130.88 185L134.73 193H133L129.89 186.66Z" fill="#263238"/>
<path d="M142.26 181.86V182.26H140.7V181.78C140.7 180.45 140.2 179.67 139.02 179.67C137.84 179.67 137.34 180.45 137.34 181.76C137.34 185.06 142.28 185.38 142.28 189.52C142.28 191.75 141.21 193.2 138.96 193.2C136.71 193.2 135.65 191.75 135.65 189.52V188.68H137.19V189.61C137.19 190.93 137.74 191.71 138.92 191.71C140.1 191.71 140.64 190.93 140.64 189.61C140.64 186.32 135.72 186.01 135.72 181.86C135.72 179.59 136.77 178.18 138.98 178.18C141.19 178.18 142.26 179.63 142.26 181.86Z" fill="#263238"/>
<path d="M328.51 275.75H102.6V336.11H328.51V275.75Z" fill="#92C6E3" fill-opacity="0.74" stroke="#263238" stroke-linecap="round" stroke-linejoin="round"/>
<path d="M276.68 291.5C277.68 291.5 278.09 292.08 278.09 293.03V293.79C278.09 294.79 277.62 295.31 276.63 295.31H276V297.8H275.3V291.5H276.68ZM276.63 294.68C277.15 294.68 277.4 294.44 277.4 293.84V293C277.4 292.42 277.19 292.13 276.68 292.13H276V294.68H276.63Z" fill="#263238"/>
<path d="M280 291.5C281 291.5 281.41 292 281.41 292.94V293.45C281.451 293.724 281.396 294.003 281.254 294.24C281.111 294.478 280.891 294.658 280.63 294.75C281.2 294.92 281.42 295.38 281.42 296.06V297.06C281.401 297.319 281.442 297.579 281.54 297.82H280.83C280.735 297.575 280.697 297.312 280.72 297.05V296.05C280.72 295.34 280.38 295.12 279.8 295.12H279.3V297.81H278.6V291.51L280 291.5ZM279.83 294.5C280.38 294.5 280.72 294.32 280.72 293.63V293C280.72 292.43 280.51 292.13 279.99 292.13H279.3V294.47L279.83 294.5Z" fill="#263238"/>
<path d="M282.13 293C282.13 292 282.61 291.41 283.57 291.41C284.53 291.41 285.02 292.03 285.02 293V296.26C285.037 296.46 285.012 296.661 284.947 296.851C284.881 297.04 284.778 297.215 284.642 297.362C284.506 297.51 284.341 297.628 284.158 297.708C283.974 297.789 283.776 297.83 283.575 297.83C283.374 297.83 283.176 297.789 282.992 297.708C282.809 297.628 282.644 297.51 282.508 297.362C282.372 297.215 282.268 297.04 282.203 296.851C282.138 296.661 282.113 296.46 282.13 296.26V293ZM282.83 296.29C282.83 296.87 283.07 297.2 283.57 297.2C284.07 297.2 284.32 296.87 284.32 296.29V293C284.32 292.43 284.09 292.09 283.57 292.09C283.05 292.09 282.83 292.43 282.83 293V296.29Z" fill="#263238"/>
<path d="M288.47 293V293.54H287.8V293C287.8 292.43 287.58 292.09 287.06 292.09C286.54 292.09 286.33 292.43 286.33 293V296.33C286.33 296.9 286.56 297.24 287.06 297.24C287.56 297.24 287.8 296.9 287.8 296.33V295.07H287.15V294.44H288.47V296.3C288.47 297.3 288.02 297.88 287.05 297.88C286.08 297.88 285.63 297.25 285.63 296.3V293C285.63 292 286.08 291.41 287.05 291.41C288.02 291.41 288.47 292.06 288.47 293Z" fill="#263238"/>
<path d="M290.54 291.5C291.54 291.5 291.94 292 291.94 292.94V293.45C291.981 293.724 291.926 294.003 291.784 294.24C291.641 294.478 291.421 294.658 291.16 294.75C291.74 294.92 291.95 295.38 291.95 296.06V297.06C291.929 297.32 291.974 297.581 292.08 297.82H291.37C291.271 297.576 291.229 297.312 291.25 297.05V296.05C291.25 295.34 290.92 295.12 290.33 295.12H289.84V297.81H289.13V291.51L290.54 291.5ZM290.36 294.5C290.92 294.5 291.25 294.32 291.25 293.63V293C291.25 292.43 291.04 292.13 290.52 292.13H289.84V294.47L290.36 294.5Z" fill="#263238"/>
<path d="M294.92 294.29V294.92H293.38V297.16H295.27V297.8H292.68V291.5H295.27V292.13H293.38V294.29H294.92Z" fill="#263238"/>
<path d="M298.65 293V293.17H298V293C298 292.43 297.79 292.1 297.28 292.1C296.77 292.1 296.56 292.43 296.56 292.99C296.56 294.41 298.68 294.54 298.68 296.31C298.68 297.31 298.22 297.89 297.25 297.89C296.28 297.89 295.84 297.27 295.84 296.31V295.95H296.5V296.35C296.5 296.92 296.73 297.25 297.24 297.25C297.75 297.25 297.97 296.92 297.97 296.35C297.97 294.95 295.87 294.81 295.87 293.04C295.87 292.04 296.32 291.46 297.26 291.46C298.2 291.46 298.65 292.05 298.65 293Z" fill="#263238"/>
<path d="M302 293V293.17H301.33V293C301.33 292.43 301.11 292.1 300.61 292.1C300.11 292.1 299.89 292.43 299.89 292.99C299.89 294.41 302 294.54 302 296.31C302 297.31 301.55 297.89 300.58 297.89C299.61 297.89 299.17 297.27 299.17 296.31V295.95H299.83V296.35C299.83 296.92 300.06 297.25 300.56 297.25C301.06 297.25 301.3 296.92 301.3 296.35C301.3 294.95 299.2 294.81 299.2 293.04C299.2 292.04 299.65 291.46 300.59 291.46C301.53 291.46 302 292.05 302 293Z" fill="#263238"/>
<path d="M231.53 291.5C232.53 291.5 232.96 292.09 232.96 293.06V296.24C232.96 297.24 232.51 297.8 231.53 297.8H230.05V291.5H231.53ZM231.53 297.16C232.03 297.16 232.28 296.84 232.28 296.27V293C232.28 292.42 232.03 292.1 231.52 292.1H230.76V297.1L231.53 297.16Z" fill="#263238"/>
<path d="M235.86 294.29V294.92H234.32V297.16H236.21V297.8H233.62V291.5H236.21V292.13H234.32V294.29H235.86Z" fill="#263238"/>
<path d="M237.57 296.53L237.32 297.8H236.68L237.88 291.5H238.88L240.09 297.8H239.38L239.14 296.53H237.57ZM237.66 295.92H239.06L238.35 292.29L237.66 295.92Z" fill="#263238"/>
<path d="M242.13 291.5C243.13 291.5 243.56 292.09 243.56 293.06V296.24C243.56 297.24 243.11 297.8 242.13 297.8H240.65V291.5H242.13ZM242.13 297.16C242.64 297.16 242.88 296.84 242.88 296.27V293C242.88 292.42 242.64 292.1 242.12 292.1H241.37V297.1L242.13 297.16Z" fill="#263238"/>
<path d="M244.22 297.8V291.5H244.92V297.16H246.72V297.8H244.22Z" fill="#263238"/>
<path d="M248 291.5V297.8H247.3V291.5H248Z" fill="#263238"/>
<path d="M249.29 297.8H248.66V291.5H249.55L251.01 296.05V291.5H251.63V297.8H250.91L249.29 292.7V297.8Z" fill="#263238"/>
<path d="M254.6 294.29V294.92H253.06V297.16H255V297.8H252.4V291.5H255V292.13H253.11V294.29H254.6Z" fill="#263238"/>
<path d="M190.11 298.7H203.27" stroke="#263238" stroke-linecap="round" stroke-linejoin="round"/>
<path d="M150.65 298.7H185.38" stroke="#263238" stroke-linecap="round" stroke-linejoin="round"/>
<path d="M113.79 298.7H145.39" stroke="#263238" stroke-linecap="round" stroke-linejoin="round"/>
<path d="M170.65 313.66H180.7" stroke="#263238" stroke-linecap="round" stroke-linejoin="round"/>
<path d="M144.86 313.66H162.23" stroke="#263238" stroke-linecap="round" stroke-linejoin="round"/>
<path d="M132.24 313.66H139.6" stroke="#263238" stroke-linecap="round" stroke-linejoin="round"/>
<path d="M113.79 313.66H128.03" stroke="#263238" stroke-linecap="round" stroke-linejoin="round"/>
<path d="M320.14 310.87C320.137 312.121 319.639 313.32 318.755 314.205C317.87 315.089 316.671 315.587 315.42 315.59H265.87C264.617 315.59 263.416 315.093 262.529 314.208C261.642 313.323 261.143 312.123 261.14 310.87C261.145 309.617 261.645 308.417 262.531 307.531C263.417 306.645 264.617 306.145 265.87 306.14H315.42C316.041 306.14 316.655 306.262 317.229 306.5C317.802 306.738 318.323 307.087 318.761 307.526C319.2 307.965 319.547 308.487 319.784 309.061C320.02 309.634 320.141 310.249 320.14 310.87V310.87Z" fill="white" stroke="#263238" stroke-linecap="round" stroke-linejoin="round"/>
<path d="M305.37 306.14V315.59H265.87C264.617 315.59 263.416 315.093 262.529 314.208C261.642 313.323 261.143 312.123 261.14 310.87C261.145 309.617 261.645 308.417 262.531 307.531C263.417 306.645 264.617 306.145 265.87 306.14H305.37Z" fill="#92E3A9" stroke="#263238" stroke-linecap="round" stroke-linejoin="round"/>
<path d="M251.76 306.14H232.2C229.593 306.14 227.48 308.253 227.48 310.86V310.87C227.48 313.477 229.593 315.59 232.2 315.59H251.76C254.367 315.59 256.48 313.477 256.48 310.87V310.86C256.48 308.253 254.367 306.14 251.76 306.14Z" fill="white" stroke="#263238" stroke-linecap="round" stroke-linejoin="round"/>
<path d="M328.51 352.76H102.6V413.12H328.51V352.76Z" fill="#92C6E3" fill-opacity="0.74" stroke="#263238" stroke-linecap="round" stroke-linejoin="round"/>
<path d="M276.68 369.78C277.68 369.78 278.09 370.36 278.09 371.32V372.07C278.09 373.07 277.62 373.6 276.63 373.6H276V376.08H275.3V369.78H276.68ZM276.63 372.97C277.15 372.97 277.4 372.72 277.4 372.12V371.28C277.4 370.71 277.19 370.42 276.68 370.42H276V373L276.63 372.97Z" fill="#263238"/>
<path d="M280 369.78C281 369.78 281.41 370.28 281.41 371.22V371.73C281.41 372.43 281.17 372.86 280.63 373.03C281.2 373.2 281.42 373.67 281.42 374.34V375.34C281.4 375.599 281.441 375.859 281.54 376.1H280.83C280.735 375.859 280.697 375.598 280.72 375.34V374.34C280.72 373.62 280.38 373.4 279.8 373.4H279.3V376.09H278.6V369.79L280 369.78ZM279.83 372.78C280.38 372.78 280.72 372.6 280.72 371.92V371.31C280.72 370.75 280.51 370.45 279.99 370.45H279.3V372.78H279.83Z" fill="#263238"/>
<path d="M282.13 371.3C282.13 370.3 282.61 369.72 283.57 369.72C284.53 369.72 285.02 370.34 285.02 371.3V374.56C285.037 374.76 285.012 374.961 284.947 375.151C284.881 375.34 284.778 375.515 284.642 375.662C284.506 375.81 284.341 375.928 284.158 376.008C283.974 376.089 283.776 376.13 283.575 376.13C283.374 376.13 283.176 376.089 282.992 376.008C282.809 375.928 282.644 375.81 282.508 375.662C282.372 375.515 282.268 375.34 282.203 375.151C282.138 374.961 282.113 374.76 282.13 374.56V371.3ZM282.83 374.6C282.83 375.17 283.07 375.5 283.57 375.5C284.07 375.5 284.32 375.17 284.32 374.6V371.26C284.32 370.7 284.09 370.36 283.57 370.36C283.05 370.36 282.83 370.7 282.83 371.26V374.6Z" fill="#263238"/>
<path d="M288.47 371.3V371.84H287.8V371.26C287.8 370.7 287.58 370.36 287.06 370.36C286.54 370.36 286.33 370.7 286.33 371.26V374.6C286.33 375.16 286.56 375.5 287.06 375.5C287.56 375.5 287.8 375.16 287.8 374.6V373.34H287.15V372.71H288.47V374.56C288.47 375.51 288.02 376.14 287.05 376.14C286.08 376.14 285.63 375.51 285.63 374.56V371.3C285.63 370.35 286.08 369.72 287.05 369.72C288.02 369.72 288.47 370.35 288.47 371.3Z" fill="#263238"/>
<path d="M290.54 369.78C291.54 369.78 291.94 370.28 291.94 371.22V371.73C291.94 372.43 291.7 372.86 291.16 373.03C291.74 373.2 291.95 373.67 291.95 374.34V375.34C291.928 375.6 291.973 375.862 292.08 376.1H291.37C291.27 375.86 291.229 375.599 291.25 375.34V374.34C291.25 373.62 290.92 373.4 290.33 373.4H289.84V376.09H289.13V369.79L290.54 369.78ZM290.36 372.78C290.92 372.78 291.25 372.6 291.25 371.92V371.31C291.25 370.75 291.04 370.45 290.52 370.45H289.84V372.78H290.36Z" fill="#263238"/>
<path d="M294.92 372.57V373.2H293.38V375.44H295.27V376.08H292.68V369.78H295.27V370.42H293.38V372.57H294.92Z" fill="#263238"/>
<path d="M298.65 371.29V371.46H298V371.26C298 370.69 297.79 370.36 297.28 370.36C296.77 370.36 296.56 370.69 296.56 371.25C296.56 372.66 298.68 372.79 298.68 374.57C298.68 375.52 298.22 376.14 297.25 376.14C296.28 376.14 295.84 375.52 295.84 374.57V374.21H296.5V374.6C296.5 375.17 296.73 375.5 297.24 375.5C297.75 375.5 297.97 375.17 297.97 374.6C297.97 373.2 295.87 373.06 295.87 371.29C295.87 370.29 296.32 369.72 297.26 369.72C298.2 369.72 298.65 370.34 298.65 371.29Z" fill="#263238"/>
<path d="M302 371.29V371.46H301.33V371.26C301.33 370.69 301.11 370.36 300.61 370.36C300.11 370.36 299.89 370.69 299.89 371.25C299.89 372.66 302 372.79 302 374.57C302 375.52 301.55 376.14 300.58 376.14C299.61 376.14 299.17 375.52 299.17 374.57V374.21H299.83V374.6C299.83 375.17 300.06 375.5 300.56 375.5C301.06 375.5 301.3 375.17 301.3 374.6C301.3 373.2 299.2 373.06 299.2 371.29C299.2 370.29 299.65 369.72 300.59 369.72C301.53 369.72 302 370.34 302 371.29Z" fill="#263238"/>
<path d="M231.53 369.78C232.53 369.78 232.96 370.37 232.96 371.35V374.52C232.96 375.52 232.51 376.08 231.53 376.08H230.05V369.78H231.53ZM231.53 375.44C232.03 375.44 232.28 375.13 232.28 374.55V371.31C232.28 370.73 232.03 370.42 231.52 370.42H230.76V375.42L231.53 375.44Z" fill="#263238"/>
<path d="M235.86 372.57V373.2H234.32V375.44H236.21V376.08H233.62V369.78H236.21V370.42H234.32V372.57H235.86Z" fill="#263238"/>
<path d="M237.57 374.81L237.32 376.08H236.68L237.88 369.78H238.88L240.09 376.08H239.38L239.14 374.81H237.57ZM237.66 374.21H239.06L238.35 370.57L237.66 374.21Z" fill="#263238"/>
<path d="M242.13 369.78C243.13 369.78 243.56 370.37 243.56 371.35V374.52C243.56 375.52 243.11 376.08 242.13 376.08H240.65V369.78H242.13ZM242.13 375.44C242.64 375.44 242.88 375.13 242.88 374.55V371.31C242.88 370.73 242.64 370.42 242.12 370.42H241.37V375.42L242.13 375.44Z" fill="#263238"/>
<path d="M244.22 376.08V369.78H244.92V375.44H246.72V376.08H244.22Z" fill="#263238"/>
<path d="M248 369.78V376.08H247.3V369.78H248Z" fill="#263238"/>
<path d="M249.29 376.08H248.66V369.78H249.55L251.01 374.33V369.78H251.63V376.08H250.91L249.29 371V376.08Z" fill="#263238"/>
<path d="M254.6 372.57V373.2H253.06V375.44H255V376.08H252.4V369.78H255V370.42H253.11V372.57H254.6Z" fill="#263238"/>
<path d="M190.11 376.98H203.27" stroke="#263238" stroke-linecap="round" stroke-linejoin="round"/>
<path d="M150.65 376.98H185.38" stroke="#263238" stroke-linecap="round" stroke-linejoin="round"/>
<path d="M113.79 376.98H145.39" stroke="#263238" stroke-linecap="round" stroke-linejoin="round"/>
<path d="M170.65 391.95H180.7" stroke="#263238" stroke-linecap="round" stroke-linejoin="round"/>
<path d="M144.86 391.95H162.23" stroke="#263238" stroke-linecap="round" stroke-linejoin="round"/>
<path d="M132.24 391.95H139.6" stroke="#263238" stroke-linecap="round" stroke-linejoin="round"/>
<path d="M113.79 391.95H128.03" stroke="#263238" stroke-linecap="round" stroke-linejoin="round"/>
<path d="M320.14 389.15C320.141 389.77 320.02 390.385 319.783 390.958C319.547 391.531 319.199 392.052 318.76 392.49C318.322 392.929 317.801 393.277 317.228 393.513C316.655 393.75 316.04 393.871 315.42 393.87H265.87C265.249 393.871 264.634 393.75 264.061 393.514C263.487 393.277 262.965 392.93 262.526 392.491C262.087 392.053 261.738 391.532 261.5 390.959C261.262 390.385 261.14 389.771 261.14 389.15C261.143 387.897 261.642 386.697 262.529 385.812C263.416 384.927 264.617 384.43 265.87 384.43H315.42C316.04 384.43 316.654 384.552 317.226 384.789C317.799 385.026 318.319 385.374 318.758 385.812C319.196 386.251 319.543 386.771 319.781 387.344C320.018 387.916 320.14 388.53 320.14 389.15Z" fill="white" stroke="#263238" stroke-linecap="round" stroke-linejoin="round"/>
<path d="M270.58 384.43V393.87H265.87C265.249 393.871 264.634 393.75 264.061 393.514C263.487 393.277 262.965 392.93 262.526 392.491C262.087 392.053 261.738 391.532 261.5 390.959C261.262 390.385 261.14 389.771 261.14 389.15C261.143 387.897 261.642 386.697 262.529 385.812C263.416 384.927 264.617 384.43 265.87 384.43H270.58Z" fill="#92E3A9" stroke="#263238" stroke-linecap="round" stroke-linejoin="round"/>
<path d="M251.75 393.87H232.2C230.948 393.87 229.748 393.373 228.862 392.488C227.977 391.602 227.48 390.402 227.48 389.15V389.15C227.48 388.53 227.602 387.916 227.839 387.344C228.076 386.771 228.424 386.251 228.862 385.812C229.301 385.374 229.821 385.026 230.394 384.789C230.966 384.552 231.58 384.43 232.2 384.43H251.75C252.371 384.429 252.986 384.55 253.559 384.786C254.133 385.023 254.655 385.371 255.094 385.809C255.533 386.247 255.882 386.768 256.12 387.341C256.358 387.915 256.48 388.529 256.48 389.15V389.15C256.48 389.771 256.358 390.385 256.12 390.959C255.882 391.532 255.533 392.053 255.094 392.491C254.655 392.93 254.133 393.277 253.559 393.514C252.986 393.75 252.371 393.871 251.75 393.87V393.87Z" fill="white" stroke="#263238" stroke-linecap="round" stroke-linejoin="round"/>
<path d="M426.42 198.76H347.39C344.783 198.76 342.67 200.873 342.67 203.48V225.82C342.67 228.427 344.783 230.54 347.39 230.54H426.42C429.027 230.54 431.14 228.427 431.14 225.82V203.48C431.14 200.873 429.027 198.76 426.42 198.76Z" fill="#E39292" stroke="#263238" stroke-linecap="round" stroke-linejoin="round"/>
<path d="M359.63 219.76L359.06 222.76H357.54L360.36 208H362.74L365.56 222.73H363.92L363.35 219.73L359.63 219.76ZM359.84 218.35H363.12L361.46 209.85L359.84 218.35Z" fill="white"/>
<path d="M370.29 208C372.59 208 373.64 209.39 373.64 211.66V219.09C373.64 221.34 372.59 222.73 370.29 222.73H366.84V208H370.29ZM370.29 221.24C371.47 221.24 372.04 220.5 372.04 219.15V211.58C372.04 210.23 371.47 209.5 370.27 209.5H368.5V221.24H370.29Z" fill="white"/>
<path d="M378.63 208C380.92 208 381.97 209.39 381.97 211.66V219.09C381.97 221.34 380.92 222.73 378.63 222.73H375.18V208H378.63ZM378.63 221.24C379.8 221.24 380.37 220.5 380.37 219.15V211.58C380.37 210.23 379.8 209.5 378.6 209.5H376.84V221.24H378.63Z" fill="white"/>
<path d="M388.92 222.73V209.5H386.2V208H393.27V209.5H390.56V222.73H388.92Z" fill="white"/>
<path d="M395.27 219.76L394.7 222.76H393.19L396 208H398.38L401.2 222.73H399.55L398.99 219.73L395.27 219.76ZM395.48 218.35H398.76L397.1 209.85L395.48 218.35Z" fill="white"/>
<path d="M408.87 211.54V211.94H407.31V211.45C407.31 210.13 406.8 209.35 405.63 209.35C404.46 209.35 403.94 210.13 403.94 211.43C403.94 214.74 408.89 215.05 408.89 219.2C408.89 221.43 407.81 222.88 405.56 222.88C403.31 222.88 402.26 221.43 402.26 219.2V218.35H403.79V219.28C403.79 220.61 404.34 221.38 405.52 221.38C406.7 221.38 407.25 220.61 407.25 219.28C407.25 216 402.32 215.68 402.32 211.54C402.32 209.26 403.37 207.85 405.58 207.85C407.79 207.85 408.87 209.31 408.87 211.54Z" fill="white"/>
<path d="M412.82 216.34L411.96 217.79V222.73H410.32V208H412V215.11L415.91 208H417.58L413.85 214.71L417.7 222.71H416L412.82 216.34Z" fill="white"/>
<path d="M355.31 72.12C355.31 72.12 343.69 77.24 337.64 78.86C331.59 80.48 325.09 83.05 323.46 88.16C321.83 93.27 314.57 112.93 314.1 117.16C313.63 121.39 321.1 128.89 321.1 128.89H417.82C417.82 128.89 419.62 104.42 415.66 96.05C411.7 87.68 399.66 80.53 396.2 79.14C392.74 77.75 383.68 73.28 380 72.59C376.32 71.9 359.5 70.49 355.31 72.12Z" fill="white" stroke="#263238" stroke-linecap="round" stroke-linejoin="round"/>
<path d="M323.25 106C325.113 105.457 327.077 105.354 328.986 105.702C330.895 106.049 332.698 106.836 334.25 108" fill="white"/>
<path d="M323.25 106C325.113 105.457 327.077 105.354 328.986 105.702C330.895 106.049 332.698 106.836 334.25 108" stroke="#263238" stroke-linecap="round" stroke-linejoin="round"/>
<path d="M331 108C333.227 108.123 335.345 109.005 337 110.5Z" fill="white"/>
<path d="M331 108C333.227 108.123 335.345 109.005 337 110.5" stroke="#263238" stroke-linecap="round" stroke-linejoin="round"/>
<path d="M340.88 96.84C341.79 98.398 342.183 100.205 342 102C341.707 105.44 340.881 108.814 339.55 112" stroke="#263238" stroke-linecap="round" stroke-linejoin="round"/>
<path d="M337.5 93.45C338.418 94.0026 339.239 94.7018 339.93 95.52" stroke="#263238" stroke-linecap="round" stroke-linejoin="round"/>
<path d="M343.43 96.55C343.43 96.55 345.3 102.18 344.25 106.73" stroke="#263238" stroke-linecap="round" stroke-linejoin="round"/>
<path d="M393.67 100C393.67 100 391.35 108.14 391.58 110.7" stroke="#263238" stroke-linecap="round" stroke-linejoin="round"/>
<path d="M356.69 92.07L360.96 99.75L364.59 111.49L369.71 100.82L374.62 92.29L365.01 90.79L356.69 92.07Z" fill="#E39292" stroke="#263238" stroke-linecap="round" stroke-linejoin="round"/>
<path d="M360.96 99.76L369.71 100.82" stroke="#263238" stroke-linecap="round" stroke-linejoin="round"/>
<path d="M356.24 78.4C355.144 79.8873 354.281 81.5328 353.68 83.28C352.75 86.07 351.13 95.6 351.13 95.6C351.13 95.6 360.19 95.14 362.52 95.14C364.85 95.14 368.52 95.37 369.26 95.37C370 95.37 380.42 101.65 380.42 101.65C380.42 101.65 382.28 90.95 380.19 84.91C378.1 78.87 363.91 71.66 356.24 78.4Z" fill="white" stroke="#263238" stroke-linecap="round" stroke-linejoin="round"/>
<path d="M361.12 91.59L364.8 99.33L372.28 90.89C372.28 90.89 365.31 93 361.12 91.59Z" fill="white" stroke="#263238" stroke-linecap="round" stroke-linejoin="round"/>
<path d="M392.3 178.87L388.71 185.5C388.71 185.5 384.27 186.43 383.81 187.36C382.671 189.483 381.331 191.492 379.81 193.36C378.65 194.52 376.33 196.15 378.42 197.08C380.51 198.01 384.23 193.83 384.23 193.83L386.32 192.66C386.469 194.516 386.241 196.384 385.65 198.15C384.28 202.08 382.7 206.86 382.9 207.36C383.9 209.86 385.55 208.1 385.55 208.1L388.67 200.81L389.22 200.46C389.22 200.46 388.59 208.79 388.59 208.82C388.47 210.35 389.82 212.14 391 210.57L393.79 201.74V209.68C393.782 209.969 393.84 210.256 393.959 210.52C394.078 210.783 394.256 211.016 394.478 211.201C394.701 211.386 394.962 211.518 395.243 211.587C395.524 211.656 395.817 211.661 396.1 211.6L396.35 211.5C397.28 211.04 397.6 201.34 397.6 201.34L399.54 208.34C399.585 208.523 399.668 208.694 399.783 208.843C399.899 208.992 400.044 209.115 400.21 209.205C400.375 209.294 400.558 209.348 400.746 209.363C400.934 209.377 401.122 209.353 401.3 209.29C401.389 209.263 401.471 209.215 401.539 209.151C401.606 209.087 401.658 209.008 401.69 208.92C401.93 208.23 401.23 197.07 401.23 197.07L400.76 185.44L401.46 181.49L392.3 178.87Z" fill="white" stroke="#263238" stroke-linecap="round" stroke-linejoin="round"/>
<path d="M396.7 101C396.7 101 392.98 108.91 393.44 111.7C393.9 114.49 404.74 141.16 404.74 141.16L391.27 179.97L401.97 182.53C401.97 182.53 420.24 155.37 422.18 149.53C423.244 146.229 423.715 142.765 423.57 139.3C423.57 137.9 419.25 106.12 416.69 100.54C415.201 97.2521 413.244 94.1971 410.88 91.47" fill="white"/>
<path d="M396.7 101C396.7 101 392.98 108.91 393.44 111.7C393.9 114.49 404.74 141.16 404.74 141.16L391.27 179.97L401.97 182.53C401.97 182.53 420.24 155.37 422.18 149.53C423.244 146.229 423.715 142.765 423.57 139.3C423.57 137.9 419.25 106.12 416.69 100.54C415.201 97.2521 413.244 94.1971 410.88 91.47" stroke="#263238" stroke-linecap="round" stroke-linejoin="round"/>
<path d="M406.37 140.18C406.37 140.18 410.55 134.36 413.11 130.64" stroke="#263238" stroke-linecap="round" stroke-linejoin="round"/>
<path d="M412.41 128.55L407.3 135.06" stroke="#263238" stroke-linecap="round" stroke-linejoin="round"/>
<path d="M392.2 176.2L403.59 178.99" stroke="#263238" stroke-linecap="round" stroke-linejoin="round"/>
<path d="M317.73 110.51C316.639 111.459 315.674 112.545 314.86 113.74C312.76 116.74 313.93 123.27 315.32 125.36C316.71 127.45 322.32 128.85 322.32 128.85H367.46L368.37 121.22H366.72C366.72 121.22 358.59 118.66 352.77 117.03C346.95 115.4 335.52 110.57 332.08 109.83C329.451 109.266 326.745 109.162 324.08 109.52" fill="white"/>
<path d="M317.73 110.51C316.639 111.459 315.674 112.545 314.86 113.74C312.76 116.74 313.93 123.27 315.32 125.36C316.71 127.45 322.32 128.85 322.32 128.85H367.46L368.37 121.22H366.72C366.72 121.22 358.59 118.66 352.77 117.03C346.95 115.4 335.52 110.57 332.08 109.83C329.451 109.266 326.745 109.162 324.08 109.52" stroke="#263238" stroke-linecap="round" stroke-linejoin="round"/>
<path d="M375.06 128.85L374.83 128.56C374.83 128.56 379.52 128.13 380.16 127.92C381.004 127.725 381.859 127.581 382.72 127.49L389.5 128.85H396.23L395.53 127.69L389.53 123.97L384.34 121.38C378.95 118.68 372.48 122.01 366.74 121.18L367.83 121.32L366.92 128.85H375.06Z" fill="white" stroke="#263238" stroke-linecap="round" stroke-linejoin="round"/>
<path d="M384.43 123.65L395.1 128.35" stroke="#263238" stroke-linecap="round" stroke-linejoin="round"/>
<path d="M363.73 120.88L363.45 128.62" stroke="#263238" stroke-linecap="round" stroke-linejoin="round"/>
<path d="M354.85 65.15C352.984 62.5522 351.858 59.4972 351.59 56.31C351.36 51.43 353.68 50.5 353.68 50.5C353.68 50.5 350.2 44.92 357.87 41.66C365.54 38.4 377.17 36.55 383.68 40.04C390.19 43.53 392.51 51.66 392.28 57.24C392.05 62.82 388.79 69.33 388.79 69.33L383.68 75.61C383.68 75.61 380.42 76.77 379.68 75.38C378.94 73.99 375.07 69.8 373 69.8C370.93 69.8 365.56 69.8 362.77 68.63C359.98 67.46 354.85 65.15 354.85 65.15Z" fill="#263238" stroke="#263238" stroke-linecap="round" stroke-linejoin="round"/>
<path d="M354.38 58.17C354.38 58.17 354.15 72.35 354.15 75.38C354.15 78.41 354.15 81.38 355.54 84.44C356.93 87.5 358.1 95.6 364.38 96.07C370.66 96.54 379.72 90.07 381.38 86.54C383.04 83.01 383.91 77 383.91 77C383.91 77 389.49 73.28 390.42 68.87C391.35 64.46 389.49 62.36 388.33 64.45C387.17 66.54 385.54 71.89 384.84 72.35C384.14 72.81 383.21 69.56 383.21 69.56C383.21 69.56 379.72 70.96 379.26 69.56C378.8 68.16 381.12 61.43 381.12 61.43C381.12 61.43 373.45 63.52 371.82 63.52C370.076 63.3196 368.36 62.9307 366.7 62.36L373.45 66.54C370.505 67.7618 367.245 68.0072 364.15 67.24C359.5 65.84 356.01 58.17 356.01 58.17H354.38Z" fill="white" stroke="#263238" stroke-linecap="round" stroke-linejoin="round"/>
<path d="M361.36 73.05V75.84C361.36 75.84 358.36 83.75 358.8 85.14C359.24 86.53 363.45 85.84 364.38 85.37" fill="white"/>
<path d="M361.36 73.05V75.84C361.36 75.84 358.36 83.75 358.8 85.14C359.24 86.53 363.45 85.84 364.38 85.37" stroke="#263238" stroke-linecap="round" stroke-linejoin="round"/>
<path d="M360.89 87.47C362.261 88.2671 363.81 88.7059 365.396 88.7461C366.981 88.7863 368.551 88.4266 369.96 87.7" fill="white"/>
<path d="M360.89 87.47C362.261 88.2671 363.81 88.7059 365.396 88.7461C366.981 88.7863 368.551 88.4266 369.96 87.7" stroke="#263238" stroke-linecap="round" stroke-linejoin="round"/>
<path d="M367.63 77C368.796 77.8277 370.143 78.3656 371.559 78.5691C372.974 78.7726 374.418 78.6357 375.77 78.17" fill="white"/>
<path d="M367.63 77C368.796 77.8277 370.143 78.3656 371.559 78.5691C372.974 78.7726 374.418 78.6357 375.77 78.17" stroke="#263238" stroke-linecap="round" stroke-linejoin="round"/>
<path d="M367.87 72.82C367.87 72.82 373 71 376.24 74.45Z" fill="white"/>
<path d="M367.87 72.82C367.87 72.82 373 71 376.24 74.45" stroke="#263238" stroke-linecap="round" stroke-linejoin="round"/>
<path d="M356 73.28C356 73.28 356.93 75.38 361.35 75.84Z" fill="white"/>
<path d="M356 73.28C356 73.28 356.93 75.38 361.35 75.84" stroke="#263238" stroke-linecap="round" stroke-linejoin="round"/>
<path d="M360.43 71C360.43 71 358.8 68.21 356.43 69.14Z" fill="white"/>
<path d="M360.43 71C360.43 71 358.8 68.21 356.43 69.14" stroke="#263238" stroke-linecap="round" stroke-linejoin="round"/>
<path d="M364.59 111.49L357.97 170.6L366.51 182.55L374.4 170.6L364.59 111.49Z" fill="#E39292" stroke="#263238" stroke-linecap="round" stroke-linejoin="round"/>
<path d="M108.09 255.48V265.21C108.09 265.21 207.67 261.14 328.51 259.12L108.09 255.48Z" fill="#263238" stroke="#263238" stroke-linecap="round" stroke-linejoin="round"/>
<path d="M328.51 198.76H102.6V259.12H328.51V198.76Z" fill="#92C6E3" fill-opacity="0.74" stroke="#263238" stroke-linecap="round" stroke-linejoin="round"/>
<path d="M276.68 214.32C277.68 214.32 278.09 214.9 278.09 215.86V216.61C278.09 217.61 277.62 218.13 276.63 218.13H276V220.62H275.3V214.32H276.68ZM276.63 217.5C277.15 217.5 277.4 217.26 277.4 216.66V215.82C277.4 215.25 277.19 214.96 276.68 214.96H276V217.5H276.63Z" fill="#263238"/>
<path d="M280 214.32C281 214.32 281.41 214.82 281.41 215.76V216.27C281.41 216.96 281.17 217.4 280.63 217.57C281.2 217.74 281.42 218.21 281.42 218.88V219.88C281.401 220.139 281.442 220.399 281.54 220.64H280.83C280.734 220.395 280.696 220.132 280.72 219.87V218.87C280.72 218.16 280.38 217.94 279.8 217.94H279.3V220.63H278.6V214.33L280 214.32ZM279.83 217.32C280.38 217.32 280.72 217.14 280.72 216.45V215.85C280.72 215.28 280.51 214.99 279.99 214.99H279.3V217.32H279.83Z" fill="#263238"/>
<path d="M282.13 215.84C282.13 214.84 282.61 214.25 283.57 214.25C284.53 214.25 285.02 214.88 285.02 215.84V219.1C285.037 219.3 285.012 219.501 284.947 219.691C284.881 219.88 284.778 220.055 284.642 220.202C284.506 220.35 284.341 220.468 284.158 220.548C283.974 220.629 283.776 220.67 283.575 220.67C283.374 220.67 283.176 220.629 282.992 220.548C282.809 220.468 282.644 220.35 282.508 220.202C282.372 220.055 282.268 219.88 282.203 219.691C282.138 219.501 282.113 219.3 282.13 219.1V215.84ZM282.83 219.13C282.83 219.71 283.07 220.04 283.57 220.04C284.07 220.04 284.32 219.71 284.32 219.13V215.8C284.32 215.24 284.09 214.89 283.57 214.89C283.05 214.89 282.83 215.24 282.83 215.8V219.13Z" fill="#263238"/>
<path d="M288.47 215.84V216.38H287.8V215.8C287.8 215.24 287.58 214.89 287.06 214.89C286.54 214.89 286.33 215.24 286.33 215.8V219.13C286.33 219.7 286.56 220.04 287.06 220.04C287.56 220.04 287.8 219.7 287.8 219.13V217.87H287.15V217.24H288.47V219.1C288.47 220.1 288.02 220.68 287.05 220.68C286.08 220.68 285.63 220.05 285.63 219.1V215.84C285.63 214.84 286.08 214.25 287.05 214.25C288.02 214.25 288.47 214.88 288.47 215.84Z" fill="#263238"/>
<path d="M290.54 214.32C291.54 214.32 291.94 214.82 291.94 215.76V216.27C291.94 216.96 291.7 217.4 291.16 217.57C291.74 217.74 291.95 218.21 291.95 218.88V219.88C291.929 220.14 291.974 220.401 292.08 220.64H291.37C291.269 220.396 291.228 220.133 291.25 219.87V218.87C291.25 218.16 290.92 217.94 290.33 217.94H289.84V220.63H289.13V214.33L290.54 214.32ZM290.36 217.32C290.92 217.32 291.25 217.14 291.25 216.45V215.85C291.25 215.28 291.04 214.99 290.52 214.99H289.84V217.32H290.36Z" fill="#263238"/>
<path d="M294.92 217.11V217.74H293.38V220H295.27V220.64H292.68V214.34H295.27V215H293.38V217.15L294.92 217.11Z" fill="#263238"/>
<path d="M298.65 215.83V216H298V215.79C298 215.23 297.79 214.89 297.28 214.89C296.77 214.89 296.56 215.23 296.56 215.79C296.56 217.2 298.68 217.33 298.68 219.11C298.68 220.06 298.22 220.68 297.25 220.68C296.28 220.68 295.84 220.06 295.84 219.11V218.75H296.5V219.14C296.5 219.71 296.73 220.04 297.24 220.04C297.75 220.04 297.97 219.71 297.97 219.14C297.97 217.74 295.87 217.6 295.87 215.83C295.87 214.83 296.32 214.25 297.26 214.25C298.2 214.25 298.65 214.88 298.65 215.83Z" fill="#263238"/>
<path d="M302 215.83V216H301.33V215.79C301.33 215.23 301.11 214.89 300.61 214.89C300.11 214.89 299.89 215.23 299.89 215.79C299.89 217.2 302 217.33 302 219.11C302 220.06 301.55 220.68 300.58 220.68C299.61 220.68 299.17 220.06 299.17 219.11V218.75H299.83V219.14C299.83 219.71 300.06 220.04 300.56 220.04C301.06 220.04 301.3 219.71 301.3 219.14C301.3 217.74 299.2 217.6 299.2 215.83C299.2 214.83 299.65 214.25 300.59 214.25C301.53 214.25 302 214.88 302 215.83Z" fill="#263238"/>
<path d="M231.53 214.32C232.53 214.32 232.96 214.91 232.96 215.88V219.06C232.96 220.06 232.51 220.62 231.53 220.62H230.05V214.32H231.53ZM231.53 219.98C232.03 219.98 232.28 219.67 232.28 219.09V215.85C232.28 215.27 232.03 214.96 231.52 214.96H230.76V219.96L231.53 219.98Z" fill="#263238"/>
<path d="M235.86 217.11V217.74H234.32V220H236.21V220.64H233.62V214.34H236.21V215H234.32V217.15L235.86 217.11Z" fill="#263238"/>
<path d="M237.57 219.35L237.32 220.62H236.68L237.88 214.32H238.88L240.09 220.62H239.38L239.14 219.35H237.57ZM237.66 218.75H239.06L238.35 215.11L237.66 218.75Z" fill="#263238"/>
<path d="M242.13 214.32C243.13 214.32 243.56 214.91 243.56 215.88V219.06C243.56 220.06 243.11 220.62 242.13 220.62H240.65V214.32H242.13ZM242.13 219.98C242.64 219.98 242.88 219.67 242.88 219.09V215.85C242.88 215.27 242.64 214.96 242.12 214.96H241.37V219.96L242.13 219.98Z" fill="#263238"/>
<path d="M244.22 220.62V214.32H244.92V220H246.72V220.64L244.22 220.62Z" fill="#263238"/>
<path d="M248 214.32V220.62H247.3V214.32H248Z" fill="#263238"/>
<path d="M249.29 220.62H248.66V214.32H249.55L251.01 218.87V214.32H251.63V220.62H250.91L249.29 215.52V220.62Z" fill="#263238"/>
<path d="M254.6 217.11V217.74H253.06V220H255V220.64H252.4V214.34H255V215H253.11V217.15L254.6 217.11Z" fill="#263238"/>
<path d="M190.11 221.52H203.27" stroke="#263238" stroke-linecap="round" stroke-linejoin="round"/>
<path d="M150.65 221.52H185.38" stroke="#263238" stroke-linecap="round" stroke-linejoin="round"/>
<path d="M113.79 221.52H145.39" stroke="#263238" stroke-linecap="round" stroke-linejoin="round"/>
<path d="M170.65 236.49H180.7" stroke="#263238" stroke-linecap="round" stroke-linejoin="round"/>
<path d="M144.86 236.49H162.23" stroke="#263238" stroke-linecap="round" stroke-linejoin="round"/>
<path d="M132.24 236.49H139.6" stroke="#263238" stroke-linecap="round" stroke-linejoin="round"/>
<path d="M113.79 236.49H128.03" stroke="#263238" stroke-linecap="round" stroke-linejoin="round"/>
<path d="M320.14 233.69C320.141 234.31 320.02 234.925 319.783 235.498C319.547 236.071 319.199 236.592 318.76 237.031C318.322 237.469 317.801 237.817 317.228 238.053C316.655 238.29 316.04 238.411 315.42 238.41H265.87C265.249 238.411 264.634 238.29 264.061 238.054C263.487 237.817 262.965 237.47 262.526 237.031C262.087 236.593 261.738 236.072 261.5 235.499C261.262 234.925 261.14 234.311 261.14 233.69C261.145 232.437 261.645 231.237 262.531 230.351C263.417 229.465 264.617 228.965 265.87 228.96H315.42C316.041 228.96 316.655 229.082 317.229 229.32C317.802 229.558 318.323 229.907 318.761 230.346C319.2 230.785 319.547 231.307 319.784 231.881C320.02 232.454 320.141 233.069 320.14 233.69V233.69Z" fill="white" stroke="#263238" stroke-linecap="round" stroke-linejoin="round"/>
<path d="M251.75 238.41H232.2C230.948 238.41 229.748 237.913 228.862 237.028C227.977 236.142 227.48 234.942 227.48 233.69V233.69C227.488 232.443 227.989 231.251 228.873 230.372C229.757 229.493 230.953 229 232.2 229H251.75C252.371 229 252.986 229.122 253.56 229.36C254.134 229.598 254.655 229.946 255.095 230.385C255.534 230.825 255.882 231.346 256.12 231.92C256.358 232.494 256.48 233.109 256.48 233.73C256.469 234.977 255.966 236.168 255.08 237.045C254.194 237.922 252.997 238.413 251.75 238.41V238.41Z" fill="white" stroke="#263238" stroke-linecap="round" stroke-linejoin="round"/>
<path d="M122.52 269C122.52 269 125.86 260.31 126.52 259.42C127.18 258.53 128.3 256.3 130.31 256.3C132.32 256.3 135.88 256.52 137.44 255.85C139 255.18 141 255.18 140.56 256.52C140.12 257.86 137.44 258.3 137.44 258.3L149.02 259.2C149.02 259.2 145.68 262.31 144.12 262.98C142.522 263.547 140.884 263.995 139.22 264.32C137.836 265.252 136.337 266.002 134.76 266.55C133.292 266.866 131.806 267.09 130.31 267.22L127.86 271.67L122.52 269Z" fill="white" stroke="#263238" stroke-linecap="round" stroke-linejoin="round"/>
<path d="M137.45 258.29L132.32 259.63" stroke="#263238" stroke-linecap="round" stroke-linejoin="round"/>
<path d="M94.89 230.44L91.1 236.91L93.33 242.03L99.57 237.35L102.69 235.12V221.75L94.89 230.44Z" fill="white" stroke="#263238" stroke-linecap="round" stroke-linejoin="round"/>
<path d="M94 234C94 234 95.78 224.86 96.67 223.75C97.56 222.64 101.13 219.96 102.24 219.75C103.35 219.54 104.92 220.19 104.03 221.53C102.918 222.804 101.643 223.927 100.24 224.87C100.24 224.87 101.8 229.33 100.68 231.78C99.9091 233.323 98.6604 234.575 97.12 235.35" fill="white"/>
<path d="M94 234C94 234 95.78 224.86 96.67 223.75C97.56 222.64 101.13 219.96 102.24 219.75C103.35 219.54 104.92 220.19 104.03 221.53C102.918 222.804 101.643 223.927 100.24 224.87C100.24 224.87 101.8 229.33 100.68 231.78C99.9091 233.323 98.6604 234.575 97.12 235.35" stroke="#263238" stroke-linecap="round" stroke-linejoin="round"/>
<path d="M91.33 235.12L95.11 244.7L75.73 259.41L71.5 244.26L91.33 235.12Z" fill="#E39292" stroke="#263238" stroke-linecap="round" stroke-linejoin="round"/>
<path d="M82.5 395.83L83.25 405.33C83.25 405.33 78.25 415.83 78.75 425.08C79.25 434.33 80.25 461.08 80.25 462.58C80.25 464.08 77.75 465.83 79.5 472.08C79.99 473.82 84.25 472.58 88.5 475.33C92.75 478.08 98 479.83 101.25 479.83C104.5 479.83 106.25 479.83 106.25 478.33C106.25 476.83 101.5 474.83 99.5 472.83C96.3591 469.26 93.4371 465.503 90.75 461.58C90.25 460.58 92.5 445.83 94 440.08C95.5 434.33 99.75 420.58 101.5 410.83C103.25 401.08 104 393.08 104 393.08L82.5 395.83Z" fill="white" stroke="#263238" stroke-linecap="round" stroke-linejoin="round"/>
<path d="M79.5 472.08L80 478.83H83.5L85 473.33C85 473.33 80.75 471.83 79.5 472.08Z" fill="#263238" stroke="#263238" stroke-linecap="round" stroke-linejoin="round"/>
<path d="M101.25 479.83C104.48 479.51 106.25 479.83 106.25 478.33C106.25 476.83 101.5 474.83 99.4999 472.83C96.7811 469.746 94.2211 466.525 91.8299 463.18C90.7987 463.986 89.5542 464.472 88.2499 464.58C84.4999 464.83 80.2499 462.58 80.2499 462.58C80.2499 464.08 77.7499 465.83 79.4999 472.08C79.9899 473.82 84.3899 473.51 87.8199 477.63C91.0599 481.52 100.76 479.88 101.25 479.83Z" fill="#263238" stroke="#263238" stroke-linecap="round" stroke-linejoin="round"/>
<path d="M53.25 388.58L53.75 402.58C53.75 402.58 47.25 411.33 46 419.83C44.75 428.33 40.5 461.58 40.5 464.83C40.5 468.08 38.5 478.58 39.5 479.33C40.5 480.08 52 479.33 52 479.33C52.4058 478.21 52.5761 477.019 52.5 475.83C52.5 473.33 50.5 465.08 51 463.08C51.5 461.08 53.25 454.83 53.25 454.83C53.25 454.83 61 434.58 64.25 428.33C67.5 422.08 70.25 413.08 72 407.58C73.75 402.08 75.25 394.33 75.25 394.33L53.25 388.58Z" fill="white" stroke="#263238" stroke-linecap="round" stroke-linejoin="round"/>
<path d="M50.94 463.46C47.47 458.58 41.81 461.56 40.7 462.21C40.57 463.5 40.5 464.42 40.5 464.83C40.5 468.08 38.5 478.58 39.5 479.33C40.5 480.08 52 479.33 52 479.33C52.4058 478.21 52.5761 477.019 52.5 475.83C52.5 473.47 50.71 466 50.94 463.46Z" fill="#263238" stroke="#263238" stroke-linecap="round" stroke-linejoin="round"/>
<path d="M52 479.33C51.5 477.83 48 471.83 48 471.83L41.5 472.08C39.25 474.58 39.5 479.33 39.5 479.33C40.5 480.08 52 479.33 52 479.33Z" fill="#8C8C8C" stroke="#263238" stroke-linecap="round" stroke-linejoin="round"/>
<path d="M48 471.83C48 471.83 45.75 469.83 44 470.58C43.0865 470.932 42.2407 471.44 41.5 472.08L41.75 479.58H46.25L48 471.83Z" fill="#263238" stroke="#263238" stroke-linecap="round" stroke-linejoin="round"/>
<path d="M47.75 338.83C46.4129 342.525 45.654 346.404 45.5 350.33C45.25 356.83 47 388.83 47 388.83C47 388.83 59.5 397.33 80.5 398.08C101.5 398.83 111.25 393.08 111.25 393.08C111.25 393.08 110.75 354.58 108.25 345.33C105.75 336.08 101.25 332.33 101.25 332.33C101.25 332.33 91.25 335.33 76 335.08C67.3334 335.015 58.6994 334.01 50.25 332.08L47.75 338.83Z" fill="#263238" stroke="#263238" stroke-linecap="round" stroke-linejoin="round"/>
<path d="M54.34 261.86C54.34 261.86 48.1 273.44 47.21 281.91C46.32 290.38 54.56 316.22 54.56 317.11C54.56 318 45.88 340.28 45.88 340.28C52.7012 343.205 59.7691 345.517 67 347.19C78.14 349.64 89.5 348.08 91.73 347.41L94.63 338.73L95.74 346.08C95.74 346.08 95.74 346.3 99.31 345.41C102.88 344.52 107.31 340.73 107.31 340.73C107.31 340.73 101.52 327.14 98.62 323.35C95.72 319.56 92.16 310.88 92.16 310.88L93.49 299.74C93.49 299.74 103.49 307.98 104.41 308.2C105.33 308.42 119.12 292.2 122.01 287.48C124.9 282.76 129.59 270.77 129.59 270.77L123 267.43L120.33 270.1L104.51 287.26C104.51 287.26 94.93 276.34 90.25 274.56C85.57 272.78 76.66 270.1 76.66 270.1L58.61 265.87L59.95 262.08C59.95 262.08 59 259.41 54.34 261.86Z" fill="#E39292" stroke="#263238" stroke-linecap="round" stroke-linejoin="round"/>
<path d="M93.56 299.74L83.5 293.83L92.66 304.9L93.56 299.74Z" fill="#263238" stroke="#263238" stroke-linecap="round" stroke-linejoin="round"/>
<path d="M72.4299 313.53C73.3665 314.63 74.3934 315.651 75.4999 316.58" stroke="#263238" stroke-linecap="round" stroke-linejoin="round"/>
<path d="M60.1699 291.76C60.1699 291.76 64.4699 302.84 70.3899 310.94" stroke="#263238" stroke-linecap="round" stroke-linejoin="round"/>
<path d="M64.9199 308.55C67.3231 312.485 70.1353 316.156 73.3099 319.5" stroke="#263238" stroke-linecap="round" stroke-linejoin="round"/>
<path d="M83.31 226.88C84.1948 228.651 84.8662 230.521 85.31 232.45C86.2 236.01 89.31 237.8 90.44 237.57C91.57 237.34 91.55 240.02 90.88 241.36C90.4042 242.256 89.805 243.081 89.1 243.81C88.9633 246.943 88.6662 250.067 88.21 253.17C87.54 257.17 87.32 260.3 85.76 260.3H77.76C77.76 260.3 77.09 263.86 76.86 266.76C76.63 269.66 76.64 270.1 76.64 270.1L58.59 265.87L60.59 259.63C60.59 259.63 49.23 254.51 54.8 245.15C60.37 235.79 73.5 224 83.31 226.88Z" fill="white" stroke="#263238" stroke-linecap="round" stroke-linejoin="round"/>
<path d="M77.7399 260.3L74.0399 260L76.9599 265.11L77.7399 260.3Z" fill="#263238" stroke="#263238" stroke-linecap="round" stroke-linejoin="round"/>
<path d="M88.65 248.71C87.9878 249.12 87.2325 249.357 86.4545 249.397C85.6765 249.437 84.9009 249.28 84.2 248.94" stroke="#263238" stroke-linecap="round" stroke-linejoin="round"/>
<path d="M81.75 234.9C81.75 234.9 82.19 230.67 84.42 230.9" stroke="#263238" stroke-linecap="round" stroke-linejoin="round"/>
<path d="M85.27 236.67C85.65 237.84 85.62 238.89 85.21 239.03C84.8 239.17 84.21 238.31 83.79 237.14C83.37 235.97 83.44 234.92 83.85 234.78C84.26 234.64 84.9 235.49 85.27 236.67Z" fill="#263238"/>
<path d="M83.31 220.19L83.39 220.29C85.75 223.36 85.39 226.78 83.53 230C79.82 236.55 68.53 242.64 68.53 248.05C68.53 253.46 74.23 253.18 74.23 253.18C74.23 253.18 76.51 258.03 70.81 262.3C65.11 266.57 53.41 267.71 46 260C43.9625 257.808 42.478 255.161 41.67 252.28C39.42 244.78 39.1 236.44 42.41 229.64C45.19 223.94 48.41 219.32 54.2 216.45C58.76 214.21 65.96 213.65 71.05 213.95C73.5356 214.044 75.977 214.636 78.23 215.69C80.2086 216.833 81.9363 218.364 83.31 220.19V220.19Z" fill="#263238" stroke="#263238" stroke-linecap="round" stroke-linejoin="round"/>
<path d="M67.73 257.78C68.8301 257.6 69.9067 257.298 70.94 256.88" stroke="#757575" stroke-linecap="round" stroke-linejoin="round"/>
<path d="M77.46 232.78C75.9088 235.032 73.9684 236.989 71.73 238.56C63.87 244.06 55.23 249.82 59.16 255.05C59.8365 255.946 60.7071 256.676 61.7064 257.187C62.7058 257.698 63.8079 257.976 64.93 258" stroke="#757575" stroke-linecap="round" stroke-linejoin="round"/>
<path d="M80.89 224.94C80.5742 226.49 80.067 227.995 79.38 229.42" stroke="#757575" stroke-linecap="round" stroke-linejoin="round"/>
<path d="M62.15 240.35C60.87 242.12 59.26 244.2 57.33 246.41C51.83 252.7 52.61 265.52 64.92 264.48" stroke="#757575" stroke-linecap="round" stroke-linejoin="round"/>
<path d="M65.7 234.89C65.7 234.89 65.12 236 64 237.68" stroke="#757575" stroke-linecap="round" stroke-linejoin="round"/>
<path d="M473.68 479.72H486.36" stroke="#263238" stroke-linecap="round" stroke-linejoin="round"/>
<path d="M462.85 479.72H467.85" stroke="#263238" stroke-linecap="round" stroke-linejoin="round"/>
<path d="M21.36 479.72H459.24" stroke="#263238" stroke-linecap="round" stroke-linejoin="round"/>
</svg>
